<svg width="60" height="61" viewBox="0 0 60 61" fill="none" xmlns="http://www.w3.org/2000/svg">
<rect x="2.5" y="2.5" width="55" height="56" rx="21.5" fill="#60A3D9" stroke="#0074B7" stroke-width="5"/>
<path d="M23.6231 23.7762C23.0066 23.9506 22.4421 24.2733 21.9787 24.716C21.5153 25.1588 21.1672 25.7082 20.9646 26.3164L15.2381 43.5087L16.1398 44.4111L25.3541 35.1896C25.1706 34.8051 25.0595 34.3799 25.0595 33.9254C25.0595 32.2968 26.3786 30.9766 28.0059 30.9766C29.6332 30.9766 30.9523 32.2968 30.9523 33.9254C30.9523 35.5539 29.6332 36.8741 28.0059 36.8741C27.5517 36.8741 27.1269 36.7629 26.7426 36.5792L17.5283 45.8007L18.43 46.7031L35.6089 40.9722C36.2166 40.7694 36.7656 40.421 37.2081 39.9573C37.6505 39.4935 37.9728 38.9285 38.1471 38.3116L40.7737 29.0108L32.9166 21.1476L23.6231 23.7762ZM45.8035 19.8065L42.1137 16.1139C40.9627 14.962 39.0961 14.962 37.9451 16.1139L34.4739 19.5878L42.3322 27.4523L45.8035 23.9784C46.9544 22.8265 46.9544 20.959 45.8035 19.8065V19.8065Z" fill="white"/>
</svg>
