<svg xmlns:xlink="http://www.w3.org/1999/xlink" width="17.32" xmlns="http://www.w3.org/2000/svg" height="10.365"
    id="screenshot-6349f736-a8e7-809f-8001-9790a044cfd1" viewBox="-0 0 17.32 10.365"
    style="-webkit-print-color-adjust: exact;" fill="none" version="1.1">
    <g id="shape-6349f736-a8e7-809f-8001-9790a044cfd1" rx="0" ry="0">
        <g id="shape-6349f736-a8e7-809f-8001-979071415736" rx="0" ry="0">
            <g id="shape-6349f736-a8e7-809f-8001-979071415739">
                <defs>
                    <pattern patternUnits="userSpaceOnUse" x="0" y="0.08106885116421836" height="10"
                        width="17.31999985092807" data-loading="false" id="fill-0-1c6636ea-ca9e-80c4-8001-9790c3880597">
                        <g>
                            <rect width="17.31999985092807" height="10"
                                style="fill: rgb(44, 47, 51); fill-opacity: 1;" />
                            <rect width="17.31999985092807" height="10" style=" fill-opacity: 1;" />
                        </g>
                    </pattern>
                </defs>
                <g id="fills-6349f736-a8e7-809f-8001-979071415739">
                    <path rx="0" ry="0"
                        d="M8.66,2.081C7.782,2.081,6.992,2.459,6.443,3.061L3.938,1.263C5.341,0.507,6.944,0.081,8.645,0.081C12.353,0.081,15.593,2.104,17.32,5.105C16.516,6.454,15.385,7.639,14.031,8.506L11.284,6.535C11.524,6.104,11.66,5.608,11.66,5.081C11.66,3.425,10.316,2.081,8.66,2.081ZM10.746,7.236L13.189,8.99C11.825,9.687,10.281,10.081,8.645,10.081C4.958,10.081,1.734,8.082,0,5.109C0.773,3.76,1.841,2.614,3.114,1.76L5.95,3.794C5.764,4.184,5.66,4.621,5.66,5.081C5.66,6.737,7.004,8.081,8.66,8.081C9.47,8.081,10.206,7.759,10.746,7.236ZM7.264,3.65C7.624,3.298,8.117,3.081,8.66,3.081C9.764,3.081,10.66,3.977,10.66,5.081C10.66,5.391,10.59,5.684,10.464,5.946L7.264,3.65ZM9.914,6.639C9.571,6.916,9.134,7.081,8.66,7.081C7.556,7.081,6.66,6.185,6.66,5.081C6.66,4.839,6.703,4.607,6.782,4.392L9.914,6.639Z"
                        fill="url(#fill-0-1c6636ea-ca9e-80c4-8001-9790c3880597)" />
                </g>
            </g>
        </g>
        <g id="shape-6349f736-a8e7-809f-8001-978fe22cd1b9">
            <g id="fills-6349f736-a8e7-809f-8001-978fe22cd1b9">
                <rect rx="0.39999999999997726" ry="0.39999999999997726" x="7.5610628582553545" y="-3.11531740233886"
                    transform="matrix(0.585478,-0.810689,0.810689,0.585478,-0.901282,8.602166)"
                    width="0.7999999999999545" height="16.595453912576204" style=" fill-opacity: 1;" />
            </g>
        </g>
    </g>
</svg>