<svg xmlns:xlink="http://www.w3.org/1999/xlink" width="20.001" xmlns="http://www.w3.org/2000/svg" height="30"
    id="screenshot-4437fc0e-6537-80df-8001-83e04c246e85" viewBox="-1.356 -10 20.001 30"
    style="-webkit-print-color-adjust: exact;" fill="none" version="1.1">
    <g id="shape-4437fc0e-6537-80df-8001-83e04c246e85" rx="0" ry="0">
        <g id="shape-4437fc0e-6537-80df-8001-83e04c246e86">
            <g id="fills-4437fc0e-6537-80df-8001-83e04c246e86">
                <path rx="0" ry="0"
                    d="M17.32,4.976C15.593,7.977,12.353,10,8.645,10C4.958,10,1.734,8.001,0,5.028C1.734,1.999,4.958,0,8.645,0C12.353,0,15.593,2.023,17.32,4.976ZM8.644,3C9.748,3,10.644,3.896,10.644,5C10.644,6.104,9.748,7,8.644,7C7.54,7,6.644,6.104,6.644,5C6.644,3.896,7.54,3,8.644,3ZM8.644,2C6.989,2,5.644,3.344,5.644,5C5.644,6.656,6.989,8,8.644,8C10.3,8,11.645,6.656,11.645,5C11.645,3.344,10.3,2,8.644,2Z" />
            </g>
        </g>
    </g>
</svg>